<svg clip-rule="evenodd" fill="#ffffff" fill-rule="evenodd" height="800" stroke-linejoin="round" stroke-miterlimit="2" viewBox="0 0 32 32" width="800" xmlns="http://www.w3.org/2000/svg"><path d="m12.965 5.462s-2.584.004-4.979.008c-3.034.006-5.49 2.467-5.49 5.5v13.03c0 1.459.579 2.858 1.611 3.889 1.031 1.032 2.43 1.611 3.889 1.611h13.003c3.038 0 5.5-2.462 5.5-5.5 0-2.405 0-5.004 0-5.004 0-.828-.672-1.5-1.5-1.5-.827 0-1.5.672-1.5 1.5v5.004c0 1.381-1.119 2.5-2.5 2.5h-13.003c-.663 0-1.299-.263-1.768-.732s-.732-1.105-.732-1.768v-13.03c0-1.379 1.117-2.497 2.496-2.5 2.394-.004 4.979-.008 4.979-.008.828-.002 1.498-.675 1.497-1.503s-.675-1.499-1.503-1.497z"/><path d="m20.046 6.411-6.845 6.846c-.137.137-.232.311-.271.501l-1.081 5.152c-.069.329.032.671.268.909.237.239.577.343.907.277l5.194-1.038c.193-.039.371-.134.511-.274l6.845-6.845zm1.415-1.414 5.527 5.528 1.112-1.111c1.526-1.527 1.526-4.001 0-5.527-.001 0-.001-.001-.001-.001-1.527-1.526-4.001-1.526-5.527 0z"/></svg>
